DataRate=2000.000000
DataType=double
version=3
OpenSimVersion=4.3-2021-08-27-4bc7ad9
endheader
time	f1_1	f1_2	f1_3	p1_1	p1_2	p1_3	m1_1	m1_2	m1_3	f2_1	f2_2	f2_3	p2_1	p2_2	p2_3	m2_1	m2_2	m2_3	f3_1	f3_2	f3_3	p3_1	p3_2	p3_3	m3_1	m3_2	m3_3	f4_1	f4_2	f4_3	p4_1	p4_2	p4_3	m4_1	m4_2	m4_3
1.6325	-0	0	0	-300	2252	0	0	0	0	2.126036643981934	-38.61949920654297	422.25634765625	-300	1351	0	-116057.8359375	33413.640625	1949.687133789062	-1.951637925740161	30.09164424445499	355.0256652832031	-300	450.0000000000005	0	102348.007124137	31495.82059626169	-53.8172721862793	-0	0	0	305	450.0000000000006	0	0	0	0
1.633	-0	0	0	-300	2252	0	0	0	0	1.925562858581543	-38.66957092285156	420.5421447753906	-300	1351	0	-115956.546875	33452.5546875	1978.180908203125	-1.805503905481172	30.02937312948478	354.2244567871094	-300	450.0000000000005	0	102390.5227523774	31347.5608315659	17.65103340148926	-0	0	0	305	450.0000000000006	0	0	0	0
1.6335	-0	0	0	-300	2252	0	0	0	0	2.178091526031494	-39.06309509277344	422.998046875	-300	1351	0	-116123.375	33435.78125	1986.470703125	-1.9203358378685	30.39307017897701	354.3273010253906	-300	450.0000000000005	0	102138.8665052302	31217.03152919078	112.0410537719727	-0	0	0	305	450.0000000000006	0	0	0	0
1.634	-0	0	0	-300	2252	0	0	0	0	2.07794189453125	-39.05215454101562	422.8597412109375	-300	1351	0	-116094.7109375	33240.7265625	1936.526000976562	-1.951637937210057	30.61644549872745	353.8138732910156	-300	450.0000000000005	0	102092.616504591	31246.27371567995	103.3927001953125	-0	0	0	305	450.0000000000006	0	0	0	0
1.6345	-0	0	0	-300	2252	0	0	0	0	2.280301094055176	-39.1912841796875	422.1534423828125	-300	1351	0	-115920.1015625	33446.26171875	1902.947509765625	-2.170773689615762	30.21127505326426	354.5530700683594	-300	450.0000000000005	0	101853.3196291059	31268.47097607495	73.78401947021484	-0	0	0	305	450.0000000000006	0	0	0	0
1.635	-0	0	0	-300	2252	0	0	0	0	1.938701987266541	-39.14129257202148	421.4470520019531	-300	1351	0	-116232.78125	33359.16015625	1898.621704101562	-2.071677627771306	30.11769480945839	353.8755798339844	-300	450.0000000000005	0	101692.2883813157	31167.3615975555	-4.826613903045654	-0	0	0	305	450.0000000000006	0	0	0	0
1.6355	-0	0	0	-300	2252	0	0	0	0	2.254162788391113	-39.35648727416992	422.549560546875	-300	1351	0	-116017.0859375	33213.4609375	1948.447021484375	-1.894267017254959	29.75409312876551	353.1156616210938	-300	450.0000000000005	0	101865.7571277876	31328.78933572178	76.93733978271484	-0	0	0	305	450.0000000000006	0	0	0	0
1.636	-0	0	0	-300	2252	0	0	0	0	2.395614385604858	-39.01527786254883	421.85205078125	-300	1351	0	-116120.2265625	33540.1953125	2007.238403320312	-1.716859990848386	29.74880024018681	353.2797241210938	-300	450.0000000000005	0	101749.1868146046	31360.03933317406	-24.33933258056641	-0	0	0	305	450.0000000000006	0	0	0	0
1.6365	-0	0	0	-300	2252	0	0	0	0	1.875746846199036	-39.10211944580078	423.2039184570312	-300	1351	0	-116040.1875	33579.671875	2015.603759765625	-1.977611003355022	29.90982051341858	353.916259765625	-300	450.0000000000005	0	101995.2727538863	31278.52176042743	47.35274124145508	-0	0	0	305	450.0000000000006	0	0	0	0
1.637	-0	0	0	-300	2252	0	0	0	0	2.164843082427979	-39.4324836730957	423.1613464355469	-300	1351	0	-116154.8203125	33503.9140625	1990.45556640625	-1.675253208005531	29.79565426026119	353.1775817871094	-300	450.0000000000005	0	101775.0930682436	31193.53738061525	116.9214096069336	-0	0	0	305	450.0000000000006	0	0	0	0
1.6375	-0	0	0	-300	2252	0	0	0	0	2.001904964447021	-39.48477172851562	423.1095581054688	-300	1351	0	-116062.5859375	33303.953125	2085.885009765625	-1.961854045025752	30.20055766586256	352.1301879882812	-300	450.0000000000005	0	101629.6790087556	31055.72487743713	78.89345550537109	-0	0	0	305	450.0000000000006	0	0	0	0
1.638	-0	0	0	-300	2252	0	0	0	0	2.343191146850586	-39.18059539794922	423.7122192382812	-300	1351	0	-116427.8671875	33098.2578125	2178.227783203125	-1.967344110107776	30.22165294162148	352.232177734375	-300	450.0000000000005	0	101716.210254193	31264.48659807833	68.40354919433594	-0	0	0	305	450.0000000000006	0	0	0	0
1.6385	-0	0	0	-300	2252	0	0	0	0	2.104264974594116	-39.43239593505859	422.0081481933594	-300	1351	0	-116396.4296875	33539.6640625	2091.0595703125	-2.170629926274473	30.35137171769611	352.0066833496094	-300	450.0000000000005	0	101692.2571278207	31327.27566005482	68.58109283447266	-0	0	0	305	450.0000000000006	0	0	0	0
1.639	-0	0	0	-300	2252	0	0	0	0	2.280133962631226	-39.6368293762207	422.9019165039062	-300	1351	0	-116388.8203125	33506.05859375	2123.64208984375	-2.217770283660331	30.23731989781816	352.2321166992188	-300	450.0000000000005	0	101565.8040059031	31186.24050104109	-4.635944843292236	-0	0	0	305	450.0000000000006	0	0	0	0
1.6395	-0	0	0	-300	2252	0	0	0	0	1.786842465400696	-39.66303253173828	422.808349609375	-300	1351	0	-116390.3359375	33618.11328125	1982.445678710938	-1.925838892213845	30.20601649843681	350.2832336425781	-300	450.0000000000005	0	101213.397762151	30900.36939958901	-45.02683639526367	-0	0	0	305	450.0000000000006	0	0	0	0
1.64	-0	0	0	-300	2252	0	0	0	0	2.227579593658447	-39.43498611450195	426.0696716308594	-300	1351	0	-116205.2578125	33707.39453125	2231.263671875	-1.498049080130404	29.98805042807454	351.5732421875	-300	450.0000000000005	0	101349.2805710728	31064.08815255883	-1.841008901596069	-0	0	0	305	450.0000000000006	0	0	0	0
1.6405	-0	0	0	-300	2252	0	0	0	0	2.24339771270752	-39.77567672729492	423.9307556152344	-300	1351	0	-116539.90625	33574.9375	2278.32421875	-1.784215028610157	29.79575534735729	352.5191955566406	-300	450.0000000000005	0	101223.2258852419	30987.72096230381	57.63690948486328	-0	0	0	305	450.0000000000006	0	0	0	0
1.641	-0	0	0	-300	2252	0	0	0	0	1.925989747047424	-39.76528930664062	423.7638854980469	-300	1351	0	-116541.3515625	33668.0390625	2228.384521484375	-1.862927136851333	29.90969081621804	350.6329956054688	-300	450.0000000000005	0	101193.0618233132	30961.58033664456	165.8400573730469	-0	0	0	305	450.0000000000006	0	0	0	0
1.6415	-0	0	0	-300	2252	0	0	0	0	2.177664518356323	-39.67617034912109	423.5148315429688	-300	1351	0	-116411.15625	33570.46484375	2170.0419921875	-1.717019371520455	29.65051647248313	350.4862060546875	-300	450.0000000000005	0	101232.9055755799	30857.87135314037	40.36614227294922	-0	0	0	305	450.0000000000006	0	0	0	0
1.642	-0	0	0	-300	2252	0	0	0	0	1.926048040390015	-39.89098358154297	425.2693176269531	-300	1351	0	-116576.7421875	33767.16796875	2211.04150390625	-1.904345458081289	30.24140544543977	351.4095764160156	-300	450.0000000000005	0	101332.2415133102	30847.33033968642	-39.74962997436523	-0	0	0	305	450.0000000000006	0	0	0	0
1.6425	-0	0	0	-300	2252	0	0	0	0	2.253652572631836	-39.77846527099609	424.0765075683594	-300	1351	0	-116312.296875	33482.58984375	2194.9140625	-2.024577320069289	30.01956172332959	349.5861206054688	-300	450.0000000000005	0	101167.5774496094	30902.27369546258	-1.482770085334778	-0	0	0	305	450.0000000000006	0	0	0	0
1.643	-0	0	0	-300	2252	0	0	0	0	2.471572399139404	-39.82814407348633	422.6116027832031	-300	1351	0	-116609.984375	33719.99609375	2215.541748046875	-1.748579204401052	30.01367374413223	349.438720703125	-300	450.0000000000005	0	100969.1008861707	30945.22290987473	57.64952850341797	-0	0	0	305	450.0000000000006	0	0	0	0
1.6435	-0	0	0	-300	2252	0	0	0	0	2.041629791259766	-39.84129333496094	424.2095336914062	-300	1351	0	-116613.359375	33494.90234375	2244.662353515625	-1.539630945397608	29.81152149650168	349.2136840820312	-300	450.0000000000005	0	101193.9368257867	30848.40846166368	141.163818359375	-0	0	0	305	450.0000000000006	0	0	0	0
1.644	-0	0	0	-300	2252	0	0	0	0	1.962631225585938	-40.06919479370117	424.5222778320312	-300	1351	0	-116846.7265625	33497.3203125	2198.92578125	-1.653944193948393	29.98223873338316	350.5868530273438	-300	450.0000000000005	0	100991.6946333822	31072.81080099354	132.7248840332031	-0	0	0	305	450.0000000000006	0	0	0	0
1.6445	-0	0	0	-300	2252	0	0	0	0	1.962631225585938	-40.26060485839844	424.5222778320312	-300	1351	0	-116552.9375	33807.03515625	2264.89697265625	-1.83135121650906	29.81156345179585	350.8973999023438	-300	450.0000000000005	0	100815.2258883093	30847.37134401169	127.5307540893555	-0	0	0	305	450.0000000000006	0	0	0	0
1.645	-0	0	0	-300	2252	0	0	0	0	2.114675521850586	-40.36289978027344	426.6290893554688	-300	1351	0	-116844.4765625	33848.59765625	2203.05810546875	-1.717096023996189	29.69181247773048	350.6103820800781	-300	450.0000000000005	0	100893.3977627135	30874.63501759519	5.507708549499512	-0	0	0	305	450.0000000000006	0	0	0	0
1.6455	-0	0	0	-300	2252	0	0	0	0	1.836992621421814	-40.67986297607422	425.7908020019531	-300	1351	0	-116807.7265625	33715.06640625	2239.59326171875	-1.685505563507988	29.74867435586231	351.1221313476562	-300	450.0000000000005	0	100974.7024550264	30654.42017562216	149.7498474121094	-0	0	0	305	450.0000000000006	0	0	0	0
1.646	-0	0	0	-300	2252	0	0	0	0	2.316263675689697	-40.20101928710938	424.6790771484375	-300	1351	0	-116644.546875	33711.9453125	2149.09912109375	-1.685505567024489	29.90957065713184	350.0988159179688	-300	450.0000000000005	0	101048.8743269739	30794.08814599324	138.0251312255859	-0	0	0	305	450.0000000000006	0	0	0	0
1.6465	-0	0	0	-300	2252	0	0	0	0	2.028682231903076	-40.33647918701172	425.1240539550781	-300	1351	0	-116632.640625	33486.3828125	2206.340087890625	-1.977081001122422	30.01362605542235	349.5630493164062	-300	450.0000000000005	0	100577.8040121674	30899.61938569767	103.3107299804688	-0	0	0	305	450.0000000000006	0	0	0	0
1.647	-0	0	0	-300	2252	0	0	0	0	2.038624286651611	-39.9964485168457	425.2286376953125	-300	1351	0	-117014.828125	33442.1328125	2219.609619140625	-1.967462118344017	29.81167216769312	349.2138977050781	-300	450.0000000000005	0	100677.4133848611	31005.1447784997	49.2183837890625	-0	0	0	305	450.0000000000006	0	0	0	0
1.6475	-0	0	0	-300	2252	0	0	0	0	2.203813314437866	-39.85450744628906	424.0253295898438	-300	1351	0	-117191.046875	33934.83203125	2194.85986328125	-1.805879289742973	29.76440807210353	348.5779418945312	-300	450.0000000000005	0	100667.1946387773	30825.96118452636	111.619026184082	-0	0	0	305	450.0000000000006	0	0	0	0
1.648	-0	0	0	-300	2252	0	0	0	0	2.382219791412354	-40.22084045410156	425.3199157714844	-300	1351	0	-116658.5	33559.3828125	2289.890380859375	-1.701344193241491	30.05461879826517	349.6005554199219	-300	450.0000000000005	0	100726.4212002281	30873.9670451958	54.39682388305664	-0	0	0	305	450.0000000000006	0	0	0	0
1.6485	-0	0	0	-300	2252	0	0	0	0	2.332712650299072	-40.43874740600586	426.1833801269531	-300	1351	0	-117260.5625	33583.25390625	2282.1474609375	-2.195559683053899	30.11769480675086	350.13671875	-300	450.0000000000005	0	100687.866515857	30730.80493497816	-58.58583450317383	-0	0	0	305	450.0000000000006	0	0	0	0
1.649	-0	0	0	-300	2252	0	0	0	0	2.015617609024048	-40.61699295043945	425.6867370605469	-300	1351	0	-116989.015625	33820.20703125	2227.78271484375	-1.79647786001463	30.26277156718205	349.6255798339844	-300	450.0000000000005	0	100521.0618287007	30715.07836883253	66.14960479736328	-0	0	0	305	450.0000000000006	0	0	0	0
1.6495	-0	0	0	-300	2252	0	0	0	0	2.646240711212158	-40.18813323974609	425.2811279296875	-300	1351	0	-117123.375	33618.0859375	2319.19677734375	-2.049757425884162	30.22180743505954	349.2140502929688	-300	450.0000000000005	0	100483.1243323415	30548.49633675338	73.76579284667969	-0	0	0	305	450.0000000000006	0	0	0	0
1.65	-0	0	0	-300	2252	0	0	0	0	2.233880519866943	-40.41220474243164	424.927978515625	-300	1351	0	-116717.2109375	33908.2421875	2211.8134765625	-1.837687074905269	29.98844524181851	349.7250061035156	-300	450.0000000000005	0	100416.3743335098	30495.03930404451	19.53602600097656	-0	0	0	305	450.0000000000006	0	0	0	0
1.6505	-0	0	0	-300	2252	0	0	0	0	2.368878364562988	-40.38933181762695	425.1761169433594	-300	1351	0	-116865.359375	33802.30859375	2264.80908203125	-1.774216351039756	29.86853595670668	349.5632629394531	-300	450.0000000000005	0	100343.600892954	30634.857661829	33.20404434204102	-0	0	0	305	450.0000000000006	0	0	0	0
1.651	-0	0	0	-300	2252	0	0	0	0	2.25679349899292	-40.30019378662109	425.2286376953125	-300	1351	0	-116785.4609375	33782.5546875	2228.11376953125	-1.919890104110273	29.92524715042229	349.5007934570312	-300	450.0000000000005	0	100389.1008879195	30865.20727219843	-83.14926147460938	-0	0	0	305	450.0000000000006	0	0	0	0
